<svg xmlns="http://www.w3.org/2000/svg" data-name="Layer 1" viewBox="0 0 1574.31 264.59"><path d="m133.2 155.82 132.64-77.45L135.18 0 0 77.83l29.61 17.33v20.17h-3.42v32.5h13.39v-32.5h-3.1V99.19l96.72 56.63z" class="cls-2"/><path d="M173.34 199.02 59.78 133.46v131.13l113.56-65.57z" class="cls-1"/><path d="m154.3 169.37 51.36 29.65v-59.3l-51.36 29.65zm.41 60.01 51.36 29.65v-59.3l-51.36 29.65z" class="cls-2"/><path d="M420.99 190.08c0 26.43-22.18 51-55.66 51h-71.31V73.98h54.94c30.27 0 52.45 20.42 52.45 43.43 0 17.21-11.4 29.54-18.24 29.54 17.83 0 37.83 17.93 37.83 43.12Zm-73.39-77.53h-10.88v26.22h10.57c9.64 0 16.9-4.77 16.9-13.37 0-8.08-7.05-12.85-16.58-12.85Zm30.89 72.25c0-9.74-7.05-15.65-19.59-15.65l-22.18-.1v31.72h21.87c10.16 0 19.9-4.98 19.9-15.96Zm61.36-110.82h44.36v167.09h-44.36V73.98Zm66.13 83.76c0-50.17 39.8-88.21 91.73-88.21s91.73 38.04 91.73 88.21-39.8 87.59-91.84 87.59-91.63-37.83-91.63-87.59Zm138.58-.31c0-25.81-20.32-45.71-46.85-45.71s-46.85 19.9-46.85 45.71 20.32 45.5 46.85 45.5 46.85-19.8 46.85-45.5Zm153.2 83.64-42.29-63.54v63.54h-44.26V73.98h44.26v62.3l38.77-62.3h51l-51.21 81.47 57.53 85.62h-53.8Zm64.16-60.74V73.98h44.67v106.24c0 13.89 11.92 23.12 24.57 23.12s24.77-9.43 24.77-23.12V73.98h44.67v106.35c0 38.35-31.1 65.41-69.34 65.41s-69.34-27.05-69.34-65.41Zm274.57 19.07v41.67h-108.32V73.98h44.36V199.4h63.95Zm145.83-9.32c0 26.43-22.18 51-55.66 51h-71.31V73.98h54.94c30.27 0 52.45 20.42 52.45 43.43 0 17.21-11.4 29.54-18.24 29.54 17.83 0 37.83 17.93 37.83 43.12Zm-73.39-77.53h-10.88v26.22h10.57c9.64 0 16.9-4.77 16.9-13.37 0-8.08-7.05-12.85-16.58-12.85Zm30.89 72.25c0-9.74-7.05-15.65-19.59-15.65l-22.18-.1v31.72h21.87c10.16 0 19.9-4.98 19.9-15.96Zm59.91-4.47V73.98h44.67v106.24c0 13.89 11.92 23.12 24.57 23.12s24.77-9.43 24.77-23.12V73.98h44.67v106.35c0 38.35-31.1 65.41-69.34 65.41s-69.34-27.05-69.34-65.41Zm274.58 19.07v41.67h-108.32V73.98h44.36V199.4h63.95ZM462.025 8.421l26.913 26.913-26.913 26.912-26.912-26.912z" class="cls-1"/></svg>